<svg width="40" height="40" viewBox="0 0 40 40" fill="none" xmlns="http://www.w3.org/2000/svg">
<path fill-rule="evenodd" clip-rule="evenodd" d="M9.43396 0C10.476 0 11.3208 0.844746 11.3208 1.88679V5.28302H28.6792V1.88679C28.6792 0.844746 29.5239 0 30.566 0C31.6082 0 32.4528 0.844746 32.4528 1.88679V5.28302H35.0943C36.3955 5.28302 37.6432 5.79985 38.563 6.71985C39.4832 7.63985 40 8.88761 40 10.1887V35.0943C40 36.3955 39.4832 37.6432 38.563 38.563C37.6432 39.4832 36.3955 40 35.0943 40H4.90566C3.60459 40 2.35683 39.4832 1.43683 38.563C0.516845 37.6432 0 36.3955 0 35.0943V10.1887C0 8.88761 0.516845 7.63985 1.43683 6.71985C2.35683 5.79985 3.60459 5.28302 4.90566 5.28302H7.54717V1.88679C7.54717 0.844746 8.39191 0 9.43396 0ZM3.77358 17.3585V35.0943C3.77358 35.3947 3.89286 35.6824 4.10515 35.8949C4.31746 36.1072 4.6054 36.2264 4.90566 36.2264H35.0943C35.3947 36.2264 35.6824 36.1072 35.8949 35.8949C36.1072 35.6824 36.2264 35.3947 36.2264 35.0943V17.3585H3.77358Z" fill="white"/>
</svg>
