<svg width="40" height="40" viewBox="0 0 40 40" fill="none" xmlns="http://www.w3.org/2000/svg">
<g clip-path="url(#clip0_140_105)">
<path fill-rule="evenodd" clip-rule="evenodd" d="M18.8514 -0.00280762L18.8461 -0.00279195C17.9218 -6.17178e-05 17.0199 0.281749 16.2585 0.805731C15.4974 1.3295 14.9121 2.07083 14.5793 2.9327L13.6046 5.44878L10.549 7.18307L7.85404 6.77198L7.82495 6.76778C6.92341 6.64541 6.00584 6.79381 5.18887 7.19415C4.37187 7.59447 3.69232 8.22864 3.23661 9.01607L3.23169 9.02458L2.11543 10.9781C1.64946 11.7756 1.43499 12.6953 1.50023 13.6168C1.56576 14.5425 1.91043 15.4265 2.48874 16.1522L2.49526 16.1604L4.20155 18.2762V21.7371L2.54018 23.8537C1.96465 24.5783 1.62164 25.4601 1.55628 26.3833C1.49104 27.3048 1.70552 28.2246 2.1715 29.022L3.28775 30.9754L3.29264 30.984C3.74838 31.7714 4.42792 32.4057 5.24492 32.806C6.06189 33.2063 6.97947 33.3546 7.88101 33.2323L7.91009 33.228L10.5992 32.818L13.6025 34.5457L14.5789 37.0663C14.9117 37.9283 15.4972 38.6706 16.2585 39.1943C17.0199 39.7183 17.9218 40.0003 18.8461 40.0028H18.8514H21.2056H21.2108C22.1351 40.0003 23.037 39.7183 23.7984 39.1943C24.5596 38.6706 25.1449 37.9291 25.4777 37.0671L26.4544 34.5457L29.4576 32.818L32.1468 33.228L32.1759 33.2323C33.0774 33.3546 33.9951 33.2063 34.8119 32.806C35.6291 32.4057 36.3085 31.7714 36.7642 30.984L36.7691 30.9754L37.8854 29.0223C38.3514 28.2246 38.5659 27.3049 38.5008 26.3833C38.4351 25.4576 38.0905 24.5736 37.5122 23.8479L37.5056 23.8397L35.7994 21.7239V18.263L37.4608 16.1464C38.0362 15.4218 38.3794 14.54 38.4445 13.6168C38.5099 12.6953 38.2954 11.7756 37.8294 10.9781L36.7131 9.02458L36.7082 9.01607C36.2525 8.22864 35.5731 7.59447 34.7559 7.19415C33.9391 6.79381 33.0214 6.64541 32.1199 6.76778L32.0908 6.77198L29.4016 7.18218L26.3984 5.45427L25.422 2.93375C25.0892 2.07174 24.5036 1.32957 23.7424 0.805731C22.981 0.281749 22.0791 -6.17176e-05 21.1548 -0.00279979H21.1495L18.8514 -0.00280762ZM18.8546 3.56864H21.1462C21.3504 3.56964 21.5495 3.63207 21.7177 3.74781C21.8865 3.86395 22.0162 4.02833 22.09 4.21944L23.296 7.33258C23.4434 7.71318 23.7168 8.03178 24.0706 8.23535L28.1624 10.5896C28.5132 10.7914 28.9222 10.8681 29.3222 10.807L32.6114 10.3053C32.8074 10.2809 33.0068 10.3142 33.1845 10.4012C33.3645 10.4894 33.5142 10.6288 33.6154 10.8019L33.6171 10.805L34.7334 12.7584L34.7442 12.7774C34.8485 12.9547 34.8965 13.1594 34.8822 13.3646C34.8676 13.5698 34.7911 13.7657 34.6631 13.9265L34.6548 13.9368L32.6091 16.5432C32.3622 16.8578 32.2279 17.246 32.2279 17.6458V22.3543C32.2279 22.7622 32.3676 23.1578 32.6236 23.4752L34.7191 26.0736L34.7216 26.0766C34.8482 26.2369 34.9236 26.4316 34.9382 26.6355C34.9528 26.8406 34.9045 27.0454 34.8005 27.2227L34.7894 27.2417L33.6734 29.1951L33.6714 29.1983C33.5705 29.3714 33.4205 29.5106 33.2405 29.5988C33.0628 29.686 32.8636 29.7191 32.6674 29.6948L29.3782 29.1931C28.9782 29.132 28.5693 29.2088 28.2185 29.4106L24.1266 31.7648C23.7728 31.9683 23.4995 32.2868 23.352 32.6674L22.1469 35.7786C22.0732 35.9697 21.9426 36.1363 21.7738 36.2523C21.6056 36.368 21.4065 36.4306 21.2024 36.4314H18.8546C18.6504 36.4306 18.4513 36.368 18.2832 36.2523C18.1144 36.1363 17.9846 35.9717 17.9109 35.7806L16.7049 32.6674C16.5575 32.2868 16.2841 31.9683 15.9303 31.7648L11.8384 29.4106C11.4877 29.2088 11.0787 29.132 10.6786 29.1931L7.38964 29.6948C7.19338 29.7191 6.99415 29.686 6.81638 29.5988C6.63644 29.5106 6.48655 29.3714 6.38558 29.1983L6.38372 29.1951L5.26755 27.2417L5.25652 27.2227C5.15229 27.0454 5.10427 26.8406 5.11878 26.6355C5.13332 26.4303 5.20969 26.2344 5.33787 26.0736L5.34601 26.0633L7.39192 23.4568C7.63878 23.1423 7.77298 22.7541 7.77298 22.3543V17.6458C7.77298 17.238 7.63332 16.8424 7.37729 16.5248L5.27941 13.9235C5.15269 13.7632 5.07718 13.5684 5.06275 13.3646C5.04821 13.1594 5.09624 12.9547 5.20047 12.7774L5.21149 12.7584L6.32952 10.8018C6.43052 10.6288 6.58038 10.4894 6.76035 10.4012C6.93809 10.3142 7.13732 10.2809 7.33361 10.3053L10.6226 10.807C11.0191 10.8675 11.4245 10.7928 11.7733 10.5948L15.9212 8.24053C16.2793 8.0373 16.5562 7.71653 16.7049 7.33258L17.91 4.22167C17.9838 4.03055 18.1144 3.86395 18.2832 3.74781C18.4514 3.63207 18.6505 3.56964 18.8546 3.56864ZM13.5719 20C13.5719 21.2714 13.9489 22.5143 14.6553 23.5715C15.3617 24.6287 16.3657 25.4526 17.5404 25.9392C18.715 26.4258 20.0076 26.5531 21.2546 26.305C22.5016 26.057 23.6471 25.4447 24.5461 24.5457C25.4452 23.6466 26.0574 22.5012 26.3055 21.2542C26.5536 20.0071 26.4262 18.7146 25.9397 17.5399C25.4531 16.3652 24.6292 15.3612 23.572 14.6548C22.5148 13.9484 21.2719 13.5714 20.0004 13.5714C18.2955 13.5714 16.6604 14.2487 15.4548 15.4543C14.2492 16.6599 13.5719 18.295 13.5719 20Z" fill="#94ABD9"/>
</g>
<defs>
<clipPath id="clip0_140_105">
<rect width="40" height="40" fill="white"/>
</clipPath>
</defs>
</svg>
