<svg width="40" height="40" viewBox="0 0 40 40" fill="none" xmlns="http://www.w3.org/2000/svg">
<g clip-path="url(#clip0_140_111)">
<path fill-rule="evenodd" clip-rule="evenodd" d="M3.92836 3.92855V20.3571H14.6426V3.92855H3.92836ZM0.356934 3.5714C0.356934 1.7962 1.79602 0.357117 3.57122 0.357117H14.9998C16.775 0.357117 18.2141 1.7962 18.2141 3.5714V20.7143C18.2141 22.4895 16.775 23.9285 14.9998 23.9285H3.57122C1.79602 23.9285 0.356934 22.4895 0.356934 20.7143V3.5714ZM24.9998 0.357117C23.2246 0.357117 21.7855 1.7962 21.7855 3.5714V9.31426C21.7855 11.0895 23.2246 12.5285 24.9998 12.5285H36.4284C38.2035 12.5285 39.6426 11.0895 39.6426 9.31426V3.5714C39.6426 1.7962 38.2035 0.357117 36.4284 0.357117H24.9998ZM25.3569 19.6428V36.0714H36.0712V19.6428H25.3569ZM21.7855 19.2857C21.7855 17.5105 23.2246 16.0714 24.9998 16.0714H36.4284C38.2035 16.0714 39.6426 17.5105 39.6426 19.2857V36.4285C39.6426 38.2037 38.2035 39.6428 36.4284 39.6428H24.9998C23.2246 39.6428 21.7855 38.2037 21.7855 36.4285V19.2857ZM3.57122 27.4714C1.79602 27.4714 0.356934 28.9105 0.356934 30.6857V36.4285C0.356934 38.2037 1.79602 39.6428 3.57122 39.6428H14.9998C16.775 39.6428 18.2141 38.2037 18.2141 36.4285V30.6857C18.2141 28.9105 16.775 27.4714 14.9998 27.4714H3.57122Z" fill="#94ABD9"/>
</g>
<defs>
<clipPath id="clip0_140_111">
<rect width="40" height="40" fill="white"/>
</clipPath>
</defs>
</svg>
