<svg width="40" height="40" viewBox="0 0 40 40" fill="none" xmlns="http://www.w3.org/2000/svg">
<g clip-path="url(#clip0_131_1113)">
<path fill-rule="evenodd" clip-rule="evenodd" d="M3.92861 3.92858V20.3571H14.6429V3.92858H3.92861ZM0.357178 3.57143C0.357178 1.79623 1.79626 0.357147 3.57146 0.357147H15C16.7752 0.357147 18.2143 1.79623 18.2143 3.57143V20.7143C18.2143 22.4895 16.7752 23.9286 15 23.9286H3.57146C1.79626 23.9286 0.357178 22.4895 0.357178 20.7143V3.57143ZM25 0.357147C23.2248 0.357147 21.7857 1.79623 21.7857 3.57143V9.31429C21.7857 11.0895 23.2248 12.5286 25 12.5286H36.4286C38.2037 12.5286 39.6429 11.0895 39.6429 9.31429V3.57143C39.6429 1.79623 38.2037 0.357147 36.4286 0.357147H25ZM25.3572 19.6429V36.0714H36.0715V19.6429H25.3572ZM21.7857 19.2857C21.7857 17.5105 23.2248 16.0714 25 16.0714H36.4286C38.2037 16.0714 39.6429 17.5105 39.6429 19.2857V36.4286C39.6429 38.2037 38.2037 39.6429 36.4286 39.6429H25C23.2248 39.6429 21.7857 38.2037 21.7857 36.4286V19.2857ZM3.57146 27.4714C1.79626 27.4714 0.357178 28.9106 0.357178 30.6857V36.4286C0.357178 38.2037 1.79626 39.6429 3.57146 39.6429H15C16.7752 39.6429 18.2143 38.2037 18.2143 36.4286V30.6857C18.2143 28.9106 16.7752 27.4714 15 27.4714H3.57146Z" fill="white"/>
</g>
<defs>
<clipPath id="clip0_131_1113">
<rect width="40" height="40" fill="white"/>
</clipPath>
</defs>
</svg>
