<svg width="40" height="40" viewBox="0 0 40 40" fill="none" xmlns="http://www.w3.org/2000/svg">
<path fill-rule="evenodd" clip-rule="evenodd" d="M8.21386 3.50003C6.79372 3.50003 5.64243 4.65132 5.64243 6.07146C5.64243 7.49163 6.79372 8.64289 8.21386 8.64289C9.63403 8.64289 10.7853 7.49163 10.7853 6.07146C10.7853 4.65132 9.63403 3.50003 8.21386 3.50003ZM2.21387 6.07146C2.21387 2.75776 4.90015 0.0714722 8.21386 0.0714722C11.5276 0.0714722 14.2139 2.75776 14.2139 6.07146C14.2139 9.38517 11.5276 12.0715 8.21386 12.0715C4.90015 12.0715 2.21387 9.38517 2.21387 6.07146ZM17.1424 4.64289C17.1424 3.65669 17.9419 2.85717 18.9281 2.85717H36.071C37.0573 2.85717 37.8567 3.65669 37.8567 4.64289C37.8567 5.62912 37.0573 6.4286 36.071 6.4286H20.7139V18.2143H30.3567C31.343 18.2143 32.1424 19.0138 32.1424 20C32.1424 20.9863 31.343 21.7857 30.3567 21.7857H20.7139V38.2143C20.7139 39.2005 19.9144 40 18.9281 40C17.9419 40 17.1424 39.2005 17.1424 38.2143V20V4.64289Z" fill="white"/>
</svg>
