<svg width="36" height="40" viewBox="0 0 36 40" fill="none" xmlns="http://www.w3.org/2000/svg">
<path fill-rule="evenodd" clip-rule="evenodd" d="M3.42857 5.99999C3.42857 4.57984 4.57985 3.42856 5.99999 3.42856C7.42017 3.42856 8.57142 4.57984 8.57142 5.99999C8.57142 7.42016 7.42017 8.57142 5.99999 8.57142C4.57985 8.57142 3.42857 7.42016 3.42857 5.99999ZM5.99999 0C2.68628 0 0 2.68629 0 5.99999C0 9.3137 2.68628 12 5.99999 12C9.31371 12 12 9.3137 12 5.99999C12 2.68629 9.31371 0 5.99999 0ZM24.9286 2.7857C19.2085 2.7857 14.5714 7.42276 14.5714 13.1428V29.5714C14.5714 35.2916 19.2085 39.9285 24.9286 39.9285C30.6486 39.9285 35.2857 35.2916 35.2857 29.5714C35.2857 28.5851 34.4863 27.7857 33.5 27.7857C32.5137 27.7857 31.7143 28.5851 31.7143 29.5714C31.7143 33.3191 28.6763 36.3571 24.9286 36.3571C21.1809 36.3571 18.1429 33.3191 18.1429 29.5714V13.1428C18.1429 9.39522 21.1809 6.35713 24.9286 6.35713C28.6763 6.35713 31.7143 9.39522 31.7143 13.1428C31.7143 14.1291 32.5137 14.9286 33.5 14.9286C34.4863 14.9286 35.2857 14.1291 35.2857 13.1428C35.2857 7.42276 30.6486 2.7857 24.9286 2.7857Z" fill="white"/>
</svg>
