<svg width="40" height="40" viewBox="0 0 40 40" fill="none" xmlns="http://www.w3.org/2000/svg">
<path fill-rule="evenodd" clip-rule="evenodd" d="M21.7858 2.85716C21.7858 1.87093 20.9863 1.07144 20.0001 1.07144C19.0139 1.07144 18.2144 1.87093 18.2144 2.85716V18.0999H2.85725C1.87102 18.0999 1.07153 18.8994 1.07153 19.8856C1.07153 20.8718 1.87102 21.6713 2.85725 21.6713H18.2144V37.1429C18.2144 38.1292 19.0139 38.9286 20.0001 38.9286C20.9863 38.9286 21.7858 38.1292 21.7858 37.1429V21.6713H37.143C38.1292 21.6713 38.9287 20.8718 38.9287 19.8856C38.9287 18.8994 38.1292 18.0999 37.143 18.0999H21.7858V2.85716Z" fill="#5D5D5D"/>
</svg>
