<svg width="40" height="40" viewBox="0 0 40 40" fill="none" xmlns="http://www.w3.org/2000/svg">
<path fill-rule="evenodd" clip-rule="evenodd" d="M6.07178 11.7857C6.07178 7.24909 9.74947 3.57143 14.2861 3.57143C18.0852 3.57143 21.2861 6.15211 22.2229 9.65909C22.3809 10.2508 22.8312 10.7203 23.4159 10.9028C24.0006 11.0853 24.638 10.9555 25.1047 10.5588C26.04 9.76374 27.2478 9.28571 28.5719 9.28571C31.5305 9.28571 33.929 11.6842 33.929 14.6429C33.929 17.6015 31.5305 20 28.5719 20H14.2861C9.74947 20 6.07178 16.3223 6.07178 11.7857ZM14.2861 0C7.77701 0 2.50036 5.27666 2.50036 11.7857C2.50036 18.2948 7.77701 23.5714 14.2861 23.5714H28.5719C33.503 23.5714 37.5005 19.574 37.5005 14.6429C37.5005 9.71174 33.503 5.71429 28.5719 5.71429C27.2397 5.71429 25.9742 6.00686 24.8377 6.53074C22.9063 2.65989 18.9085 0 14.2861 0ZM15.1313 29.1726C15.6606 28.1141 15.2315 26.8269 14.173 26.2977C13.1144 25.7684 11.8273 26.1975 11.298 27.256L9.86944 30.1131C9.34018 31.1717 9.76924 32.4589 10.8278 32.988C11.8863 33.5174 13.1734 33.0883 13.7027 32.0297L15.1313 29.1726ZM27.7444 26.2977C28.803 26.8269 29.2319 28.1141 28.7028 29.1726L27.2741 32.0297C26.7449 33.0883 25.4577 33.5174 24.3992 32.988C23.3407 32.4589 22.9116 31.1717 23.4409 30.1131L24.8694 27.256C25.3987 26.1975 26.6859 25.7684 27.7444 26.2977ZM20.4884 35.6011C21.0177 34.5426 20.5886 33.2554 19.5301 32.7263C18.4716 32.1969 17.1844 32.626 16.6552 33.6846L15.2266 36.5417C14.6973 37.6003 15.1264 38.8874 16.1849 39.4166C17.2434 39.946 18.5306 39.5169 19.0598 38.4583L20.4884 35.6011ZM5.95867 32.7263C7.01721 33.2554 7.44627 34.5426 6.91698 35.6011L5.48841 38.4583C4.95915 39.5169 3.67201 39.946 2.61348 39.4166C1.55495 38.8874 1.1259 37.6003 1.65516 36.5417L3.08372 33.6846C3.61301 32.626 4.90015 32.1969 5.95867 32.7263ZM34.0599 35.6011C34.589 34.5426 34.1602 33.2554 33.1016 32.7263C32.043 32.1969 30.7559 32.626 30.2265 33.6846L28.7979 36.5417C28.2688 37.6003 28.6979 38.8874 29.7565 39.4166C30.8148 39.946 32.1019 39.5169 32.6313 38.4583L34.0599 35.6011Z" fill="white"/>
</svg>
