<svg width="40" height="40" viewBox="0 0 40 40" fill="none" xmlns="http://www.w3.org/2000/svg">
<g clip-path="url(#clip0_142_120)">
<path fill-rule="evenodd" clip-rule="evenodd" d="M3.57143 17.1429C3.57143 9.64757 9.64757 3.57143 17.1429 3.57143C24.6381 3.57143 30.7143 9.64757 30.7143 17.1429C30.7143 24.6381 24.6381 30.7143 17.1429 30.7143C9.64757 30.7143 3.57143 24.6381 3.57143 17.1429ZM17.1429 0C7.67511 0 0 7.67511 0 17.1429C0 26.6106 7.67511 34.2857 17.1429 34.2857C20.5846 34.2857 23.7894 33.2714 26.4748 31.5254L33.9034 38.9543C35.298 40.3489 37.5594 40.3489 38.9543 38.9543C40.3489 37.5594 40.3489 35.298 38.9543 33.9034L31.5254 26.4748C33.2714 23.7894 34.2857 20.5846 34.2857 17.1429C34.2857 7.67511 26.6106 0 17.1429 0Z" fill="#5D5D5D"/>
</g>
<defs>
<clipPath id="clip0_142_120">
<rect width="40" height="40" fill="white"/>
</clipPath>
</defs>
</svg>
