<svg width="40" height="40" viewBox="0 0 40 40" fill="none" xmlns="http://www.w3.org/2000/svg">
<g clip-path="url(#clip0_135_1124)">
<path fill-rule="evenodd" clip-rule="evenodd" d="M20 0C20.9862 0 21.7857 0.799491 21.7857 1.78571V5.46494C28.4452 6.27463 33.7254 11.5548 34.5351 18.2143H38.2143C39.2006 18.2143 40 19.0138 40 20C40 20.9862 39.2006 21.7857 38.2143 21.7857H34.5351C33.7254 28.4452 28.4452 33.7254 21.7857 34.5351V38.2143C21.7857 39.2006 20.9862 40 20 40C19.0138 40 18.2143 39.2006 18.2143 38.2143V34.5351C11.5548 33.7254 6.27463 28.4452 5.46494 21.7857H1.78571C0.799491 21.7857 0 20.9862 0 20C0 19.0138 0.799491 18.2143 1.78571 18.2143H5.46494C6.27463 11.5548 11.5548 6.27463 18.2143 5.46494V1.78571C18.2143 0.799491 19.0138 0 20 0ZM8.92857 20C8.92857 26.1146 13.8854 31.0714 20 31.0714C26.1146 31.0714 31.0714 26.1146 31.0714 20C31.0714 13.8854 26.1146 8.92857 20 8.92857C13.8854 8.92857 8.92857 13.8854 8.92857 20ZM16.4286 20C16.4286 18.0275 18.0275 16.4286 20 16.4286C21.9725 16.4286 23.5714 18.0275 23.5714 20C23.5714 21.9725 21.9725 23.5714 20 23.5714C18.0275 23.5714 16.4286 21.9725 16.4286 20Z" fill="white"/>
</g>
<defs>
<clipPath id="clip0_135_1124">
<rect width="40" height="40" fill="white"/>
</clipPath>
</defs>
</svg>
