<svg width="40" height="40" viewBox="0 0 40 40" fill="none" xmlns="http://www.w3.org/2000/svg">
<path fill-rule="evenodd" clip-rule="evenodd" d="M20.0002 3.57143C18.6195 3.57143 17.5002 4.69071 17.5002 6.07143V22.2181C17.5002 22.8556 17.1604 23.4447 16.6086 23.7639C14.5757 24.9398 13.2145 27.1334 13.2145 29.6429C13.2145 33.3906 16.2526 36.4286 20.0002 36.4286C23.7479 36.4286 26.7859 33.3906 26.7859 29.6429C26.7859 27.1334 25.4247 24.9398 23.3918 23.7639C22.84 23.4447 22.5002 22.8556 22.5002 22.2181V6.07143C22.5002 4.69071 21.3809 3.57143 20.0002 3.57143ZM13.9288 6.07143C13.9288 2.71827 16.6471 0 20.0002 0C23.3534 0 26.0716 2.71827 26.0716 6.07143V21.2512C28.6656 23.1311 30.3574 26.1886 30.3574 29.6429C30.3574 35.3629 25.7203 40 20.0002 40C14.2801 40 9.64307 35.3629 9.64307 29.6429C9.64307 26.1886 11.3348 23.1311 13.9288 21.2512V6.07143ZM16.7859 29.6429C16.7859 27.8677 18.225 26.4286 20.0002 26.4286C21.7754 26.4286 23.2145 27.8677 23.2145 29.6429C23.2145 31.418 21.7754 32.8571 20.0002 32.8571C18.225 32.8571 16.7859 31.418 16.7859 29.6429Z" fill="white"/>
</svg>
