<svg width="40" height="40" viewBox="0 0 40 40" fill="none" xmlns="http://www.w3.org/2000/svg">
<g clip-path="url(#clip0_152_6)">
<path fill-rule="evenodd" clip-rule="evenodd" d="M16.7168 6.35986C17.5875 5.48914 18.7684 5 19.9998 5C21.2312 5 22.4121 5.48914 23.2828 6.35986C23.8962 6.97334 24.3203 7.74083 24.5173 8.57143H15.4822C15.6792 7.74083 16.1033 6.97334 16.7168 6.35986ZM10.4166 8.57143C10.6584 6.4082 11.6272 4.37834 13.1812 2.82433C14.9896 1.01594 17.4423 0 19.9998 0C22.5572 0 25.0099 1.01594 26.8183 2.82433C28.3724 4.37834 29.3412 6.4082 29.5829 8.57143H37.1426C38.5232 8.57143 39.6426 9.69071 39.6426 11.0714C39.6426 12.4521 38.5232 13.5714 37.1426 13.5714H34.6426V35.3571C34.6426 36.5886 34.1535 37.7694 33.2826 38.64C32.4121 39.5109 31.2312 40 29.9998 40H9.99979C8.76842 40 7.5875 39.5109 6.71679 38.64C5.84608 37.7694 5.35693 36.5886 5.35693 35.3571V13.5714H2.85693C1.47622 13.5714 0.356934 12.4521 0.356934 11.0714C0.356934 9.69071 1.47622 8.57143 2.85693 8.57143H10.4166ZM31.0712 35.3571V13.5714H8.92836V35.3571C8.92836 35.6414 9.04125 35.9137 9.24216 36.1149C9.4431 36.3157 9.71562 36.4286 9.99979 36.4286H29.9998C30.2841 36.4286 30.5564 36.3157 30.7575 36.1149C30.9584 35.9137 31.0712 35.6414 31.0712 35.3571ZM15.7141 17.147C16.7003 17.147 17.4998 17.9465 17.4998 18.9327V30.3657C17.4998 31.3517 16.7003 32.1514 15.7141 32.1514C14.7278 32.1514 13.9284 31.3517 13.9284 30.3657V18.9327C13.9284 17.9465 14.7278 17.147 15.7141 17.147ZM26.0712 18.9327C26.0712 17.9465 25.2717 17.147 24.2855 17.147C23.2993 17.147 22.4998 17.9465 22.4998 18.9327V30.3657C22.4998 31.3517 23.2993 32.1514 24.2855 32.1514C25.2717 32.1514 26.0712 31.3517 26.0712 30.3657V18.9327Z" fill="white"/>
</g>
<defs>
<clipPath id="clip0_152_6">
<rect width="40" height="40" fill="white"/>
</clipPath>
</defs>
</svg>
