<svg width="40" height="40" viewBox="0 0 40 40" fill="none" xmlns="http://www.w3.org/2000/svg">
<path d="M31.2106 18.5993C29.6949 18.6013 28.2204 19.0928 27.0067 20.0006C27.0067 17.5062 26.267 15.0678 24.8812 12.9938C23.4954 10.9198 21.5257 9.30333 19.2212 8.34876C16.9167 7.39419 14.3808 7.14444 11.9344 7.63107C9.48792 8.1177 7.24069 9.31887 5.47689 11.0827C3.71309 12.8465 2.51193 15.0937 2.0253 17.5401C1.53867 19.9866 1.78842 22.5224 2.74299 24.8269C3.69755 27.1314 5.31404 29.1011 7.38806 30.4868C9.46206 31.8728 11.9004 32.6126 14.3948 32.6126H31.2106C33.0689 32.6126 34.8512 31.8743 36.1652 30.5603C37.4789 29.2463 38.2172 27.4641 38.2172 25.6059C38.2172 23.7476 37.4789 21.9654 36.1652 20.6514C34.8512 19.3375 33.0689 18.5993 31.2106 18.5993Z" stroke="white" stroke-width="1.25" stroke-linecap="round" stroke-linejoin="round"/>
</svg>
