<svg width="40" height="40" viewBox="0 0 40 40" fill="none" xmlns="http://www.w3.org/2000/svg">
<g clip-path="url(#clip0_138_27)">
<path fill-rule="evenodd" clip-rule="evenodd" d="M15.5836 0.404131C16.0295 0.137815 16.5391 -0.00280762 17.0584 -0.00280762C17.5392 -0.00280762 18.0118 0.117749 18.4331 0.347014C29.7209 5.59675 36.1509 16.5045 35.7529 25.689L35.752 25.7041C35.5792 29.5671 34.1926 33.1634 31.4872 35.8C28.7777 38.44 24.9041 39.9643 20.0466 39.9754C18.0813 40.0946 16.1116 39.8234 14.2511 39.1777C12.371 38.5251 10.6405 37.5031 9.16124 36.172C7.68201 34.8406 6.48404 33.2268 5.63776 31.4257C4.7915 29.6246 4.31407 27.6722 4.23353 25.6838L4.23244 25.6571C4.17341 23.3453 4.74901 21.0614 5.89638 19.0535C7.04376 17.0456 8.71924 15.3904 10.741 14.2676C11.1799 14.0238 11.7012 13.976 12.1771 14.1361C12.653 14.2961 13.0396 14.6491 13.2421 15.1086C13.8447 16.4762 14.6663 17.7317 15.671 18.8274C16.8112 17.1559 17.3478 15.0506 17.3306 12.7219C17.3087 9.73981 16.3706 6.53135 14.7937 3.79507C14.4844 3.27718 14.3715 2.66489 14.4765 2.07014C14.5834 1.46465 14.9085 0.919354 15.3904 0.537517C15.4518 0.488865 15.5164 0.444305 15.5836 0.404131ZM19.2513 4.79761C27.9012 9.82444 32.4803 18.5683 32.1852 25.5213L32.1846 25.5332C32.0474 28.6526 30.9466 31.3397 28.9946 33.2423C27.8967 34.312 26.4793 35.1828 24.7105 35.7377C25.3432 34.8177 25.7136 33.7034 25.7136 32.5028C25.7136 29.3468 23.1552 26.7885 19.9993 26.7885C16.8434 26.7885 14.285 29.3468 14.285 32.5028C14.285 33.7143 14.6621 34.838 15.3054 35.7626C13.9203 35.2648 12.6449 34.5023 11.5504 33.5174C10.4252 32.5046 9.51393 31.2771 8.87018 29.9068C8.22838 28.5409 7.86544 27.0606 7.80258 25.5527C7.76273 23.8976 8.17578 22.263 8.99727 20.8254C9.51258 19.9236 10.1763 19.1209 10.9565 18.4489C11.9311 20.077 13.1708 21.537 14.6288 22.7666C14.9208 23.0211 15.2771 23.1653 15.6419 23.1977C16.0128 23.2306 16.3926 23.1481 16.7228 22.9486C16.8366 22.88 16.944 22.7978 17.0425 22.7022C19.8328 20.0383 20.929 16.3692 20.902 12.6956C20.8825 10.0442 20.2822 7.31815 19.2513 4.79761Z" fill="white"/>
</g>
<defs>
<clipPath id="clip0_138_27">
<rect width="40" height="40" fill="white"/>
</clipPath>
</defs>
</svg>
