<svg width="40" height="40" viewBox="0 0 40 40" fill="none" xmlns="http://www.w3.org/2000/svg">
<path fill-rule="evenodd" clip-rule="evenodd" d="M15.5483 1.59443C14.8509 0.89707 13.7203 0.89707 13.0229 1.59443C12.3255 2.2918 12.3255 3.42244 13.0229 4.11981L18.2141 9.31107V18.2143H9.31094L4.11969 13.023C3.42232 12.3256 2.29168 12.3256 1.59431 13.023C0.896948 13.7204 0.896948 14.851 1.59431 15.5484L6.04592 20L1.59431 24.4516C0.896948 25.149 0.896948 26.2796 1.59431 26.977C2.29168 27.6743 3.42232 27.6743 4.11969 26.977L9.31094 21.7857H18.2141V30.6888L13.0229 35.8803C12.3255 36.5774 12.3255 37.7083 13.0229 38.4054C13.7203 39.1028 14.8509 39.1028 15.5483 38.4054L19.9999 33.954L24.4515 38.4054C25.1488 39.1028 26.2795 39.1028 26.9768 38.4054C27.6742 37.7083 27.6742 36.5774 26.9768 35.8803L21.7856 30.6888V21.7857H30.6887L35.8801 26.977C36.5773 27.6743 37.7081 27.6743 38.4053 26.977C39.1027 26.2796 39.1027 25.149 38.4053 24.4516L33.9539 20L38.4053 15.5484C39.1027 14.851 39.1027 13.7204 38.4053 13.023C37.7081 12.3256 36.5773 12.3256 35.8801 13.023L30.6887 18.2143H21.7856V9.31107L26.9768 4.11981C27.6742 3.42244 27.6742 2.2918 26.9768 1.59443C26.2795 0.89707 25.1488 0.89707 24.4515 1.59443L19.9999 6.04604L15.5483 1.59443ZM8.73717 8.7373C9.43454 8.03992 10.5652 8.03992 11.2625 8.7373L15.5483 13.023C16.2456 13.7204 16.2456 14.851 15.5483 15.5484C14.8509 16.2458 13.7203 16.2458 13.0229 15.5484L8.73717 11.2627C8.0398 10.5653 8.0398 9.43467 8.73717 8.7373ZM15.5483 26.977C16.2456 26.2796 16.2456 25.149 15.5483 24.4516C14.8509 23.7542 13.7203 23.7542 13.0229 24.4516L8.73717 28.7374C8.0398 29.4346 8.0398 30.5654 8.73717 31.2626C9.43454 31.96 10.5652 31.96 11.2625 31.2626L15.5483 26.977ZM31.2624 8.7373C31.9599 9.43467 31.9599 10.5653 31.2624 11.2627L26.9768 15.5484C26.2795 16.2458 25.1488 16.2458 24.4515 15.5484C23.7541 14.851 23.7541 13.7204 24.4515 13.023L28.7373 8.7373C29.4344 8.03992 30.5653 8.03992 31.2624 8.7373ZM26.9768 24.4516C26.2795 23.7542 25.1488 23.7542 24.4515 24.4516C23.7541 25.149 23.7541 26.2796 24.4515 26.977L28.7373 31.2626C29.4344 31.96 30.5653 31.96 31.2624 31.2626C31.9599 30.5654 31.9599 29.4346 31.2624 28.7374L26.9768 24.4516Z" fill="white"/>
</svg>
