<svg width="40" height="40" viewBox="0 0 40 40" fill="none" xmlns="http://www.w3.org/2000/svg">
<g clip-path="url(#clip0_138_63)">
<path fill-rule="evenodd" clip-rule="evenodd" d="M20 0C20.9862 0 21.7857 0.799491 21.7857 1.78571V4.64286C21.7857 5.62909 20.9862 6.42857 20 6.42857C19.0138 6.42857 18.2143 5.62909 18.2143 4.64286V1.78571C18.2143 0.799491 19.0138 0 20 0ZM20 16.077C17.8335 16.077 16.0772 17.8333 16.0772 19.9998C16.0772 22.1663 17.8335 23.9226 20 23.9226C22.1665 23.9226 23.9228 22.1663 23.9228 19.9998C23.9228 17.8333 22.1665 16.077 20 16.077ZM12.5057 19.9998C12.5057 15.8609 15.861 12.5056 20 12.5056C24.1389 12.5056 27.4942 15.8609 27.4942 19.9998C27.4942 24.1387 24.1389 27.494 20 27.494C15.861 27.494 12.5057 24.1387 12.5057 19.9998ZM21.7857 35.3571C21.7857 34.3709 20.9862 33.5714 20 33.5714C19.0138 33.5714 18.2143 34.3709 18.2143 35.3571V38.2143C18.2143 39.2006 19.0138 40 20 40C20.9862 40 21.7857 39.2006 21.7857 38.2143V35.3571ZM40 20C40 20.9862 39.2006 21.7857 38.2143 21.7857H35.3571C34.3709 21.7857 33.5714 20.9862 33.5714 20C33.5714 19.0138 34.3709 18.2143 35.3571 18.2143H38.2143C39.2006 18.2143 40 19.0138 40 20ZM4.64286 21.7857C5.62909 21.7857 6.42857 20.9862 6.42857 20C6.42857 19.0138 5.62909 18.2143 4.64286 18.2143H1.78571C0.799491 18.2143 0 19.0138 0 20C0 20.9862 0.799491 21.7857 1.78571 21.7857H4.64286ZM5.85786 5.85786C6.5552 5.16049 7.68586 5.16049 8.38323 5.85786L10.4035 7.87814C11.1009 8.57551 11.1009 9.70617 10.4035 10.4035C9.70617 11.1009 8.57551 11.1009 7.87814 10.4035L5.85786 8.38323C5.16049 7.68586 5.16049 6.5552 5.85786 5.85786ZM32.122 29.5966C31.4246 28.8994 30.294 28.8994 29.5966 29.5966C28.8991 30.294 28.8991 31.4246 29.5966 32.122L31.6169 34.1423C32.3143 34.8397 33.4449 34.8397 34.1423 34.1423C34.8394 33.4451 34.8394 32.3143 34.1423 31.6169L32.122 29.5966ZM34.1423 5.85786C34.8394 6.5552 34.8394 7.68586 34.1423 8.38323L32.1217 10.4035C31.4246 11.1009 30.2937 11.1009 29.5966 10.4035C28.8991 9.70617 28.8991 8.57551 29.5966 7.87814L31.6169 5.85786C32.314 5.16049 33.4449 5.16049 34.1423 5.85786ZM10.4035 32.122C11.1009 31.4246 11.1009 30.294 10.4035 29.5966C9.70611 28.8994 8.57549 28.8994 7.87811 29.5966L5.8578 31.6169C5.16043 32.3143 5.16043 33.4451 5.8578 34.1423C6.55517 34.8397 7.68583 34.8397 8.38317 34.1423L10.4035 32.122Z" fill="white"/>
</g>
<defs>
<clipPath id="clip0_138_63">
<rect width="40" height="40" fill="white"/>
</clipPath>
</defs>
</svg>
