<svg width="40" height="40" viewBox="0 0 40 40" fill="none" xmlns="http://www.w3.org/2000/svg">
<g clip-path="url(#clip0_138_87)">
<path fill-rule="evenodd" clip-rule="evenodd" d="M20.0005 1.78272L18.7379 0.520034C19.0727 0.185147 19.5269 -0.00299072 20.0005 -0.00299072C20.4741 -0.00299072 20.9283 0.185147 21.2632 0.520034L20.0005 1.78272ZM20.0005 36.4314C13.2475 36.4314 7.77309 30.9568 7.77309 24.2038C7.77309 22.5385 8.48746 20.3975 9.75715 17.9851C11.0055 15.6132 12.6911 13.1629 14.4094 10.9291C16.1228 8.7016 17.8407 6.72569 19.1323 5.30486C19.4503 4.95512 19.7419 4.6396 20.0005 4.36289V36.4314ZM20.0005 1.78272C18.7379 0.520034 18.7382 0.519742 18.7379 0.520034L18.7338 0.52408L18.7247 0.533225L18.6916 0.566582L18.5681 0.692022C18.4611 0.801145 18.3059 0.96052 18.1095 1.16535C17.7168 1.57489 17.1585 2.16676 16.4897 2.90246C15.1539 4.37186 13.3684 6.42472 11.5786 8.75154C9.79357 11.072 7.9758 13.7015 6.59672 16.3217C5.23895 18.9015 4.20166 21.6651 4.20166 24.2038C4.20166 32.9294 11.2751 40.0028 20.0005 40.0028C28.7261 40.0028 35.7995 32.9294 35.7995 24.2038C35.7995 21.6651 34.7621 18.9015 33.4043 16.3217C32.0252 13.7015 30.2075 11.072 28.4225 8.75154C26.6327 6.42472 24.8473 4.37186 23.5114 2.90246C22.8426 2.16676 22.2843 1.57489 21.8916 1.16535C21.6952 0.96052 21.54 0.801145 21.4331 0.692022L21.3095 0.566582L21.2764 0.533225L21.2673 0.52408L21.2632 0.520034C21.2629 0.519742 21.2632 0.520034 20.0005 1.78272Z" fill="white"/>
</g>
<defs>
<clipPath id="clip0_138_87">
<rect width="40" height="40" fill="white"/>
</clipPath>
</defs>
</svg>
