<svg width="40" height="40" viewBox="0 0 40 40" fill="none" xmlns="http://www.w3.org/2000/svg">
<g clip-path="url(#clip0_138_88)">
<path fill-rule="evenodd" clip-rule="evenodd" d="M3.61311 9.81641C4.829 9.16218 6.345 9.61747 6.99926 10.8333C9.32723 15.1597 14.2259 18.2357 20.0008 18.2357C25.7757 18.2357 30.6746 15.1597 33.0023 10.8333C33.6566 9.61747 35.1726 9.16218 36.3886 9.81641C37.6043 10.4707 38.0597 11.9867 37.4054 13.2026C36.8 14.3275 36.0757 15.3829 35.2489 16.3553L39.3997 20.0388C40.1374 20.6933 40.2046 21.822 39.55 22.5596C38.8954 23.2973 37.7669 23.3646 37.0291 22.71L32.6789 18.8497C31.0426 20.1628 29.174 21.2225 27.1433 21.9712L29.2683 27.323C29.6323 28.2396 29.1843 29.2777 28.2677 29.6417C27.3511 30.0057 26.3129 29.5577 25.949 28.6411L23.674 22.9117C22.4825 23.1246 21.2543 23.2357 20.0008 23.2357C18.7431 23.2357 17.5109 23.1238 16.3155 22.9095L14.0397 28.6411C13.6757 29.5577 12.6376 30.0057 11.721 29.6417C10.8044 29.2777 10.3564 28.2396 10.7204 27.323L12.8471 21.9671C10.8205 21.2185 8.95546 20.16 7.32191 18.8491L2.97097 22.71C2.23332 23.3646 1.10467 23.2973 0.45008 22.5596C-0.204513 21.822 -0.137172 20.6933 0.600491 20.0388L4.7522 16.3546C3.92546 15.3823 3.20137 14.3272 2.59621 13.2026C1.94197 11.9867 2.39725 10.4707 3.61311 9.81641Z" fill="white"/>
</g>
<defs>
<clipPath id="clip0_138_88">
<rect width="40" height="40" fill="white"/>
</clipPath>
</defs>
</svg>
