<svg width="40" height="40" viewBox="0 0 40 40" fill="none" xmlns="http://www.w3.org/2000/svg">
<path fill-rule="evenodd" clip-rule="evenodd" d="M29.0738 3.4207C29.2732 2.95633 29.2124 2.4212 28.9138 2.01341C28.6152 1.60562 28.1236 1.38587 27.6207 1.43552C22.5632 1.9348 18.6134 6.19864 18.6134 11.3868C18.6134 11.9189 18.6549 12.4413 18.735 12.9509C21.2011 13.9737 23.3415 15.6201 24.9606 17.6907C25.6704 17.5654 26.3999 17.5 27.143 17.5C29.7615 17.5 32.1921 18.3052 34.2007 19.6816C36.6041 18.0593 38.2644 15.4195 38.5647 12.3794C38.6144 11.8765 38.3944 11.3848 37.9867 11.0863C37.579 10.7878 37.0438 10.727 36.5795 10.9264C35.8904 11.2222 35.1301 11.3868 34.3275 11.3868C31.1718 11.3868 28.6132 8.82839 28.6132 5.67247C28.6132 4.87007 28.7778 4.10982 29.0738 3.4207ZM4.64296 27.1429C4.64296 22.6062 8.32062 18.9286 12.8572 18.9286C16.6564 18.9286 19.8572 21.5093 20.794 25.0162C20.9521 25.608 21.4024 26.0774 21.9871 26.26C22.5717 26.4425 23.2092 26.3127 23.6758 25.916C24.6111 25.1209 25.8189 24.6429 27.143 24.6429C30.1015 24.6429 32.5001 27.0414 32.5001 30C32.5001 32.9586 30.1015 35.3572 27.143 35.3572H12.8572C8.32062 35.3572 4.64296 31.6794 4.64296 27.1429ZM12.8572 15.3572C6.34819 15.3572 1.07153 20.6338 1.07153 27.1429C1.07153 33.652 6.34819 38.9286 12.8572 38.9286H27.143C32.0741 38.9286 36.0715 34.9312 36.0715 30C36.0715 25.0689 32.0741 21.0714 27.143 21.0714C25.8108 21.0714 24.5454 21.364 23.4089 21.8879C21.4775 18.017 17.4796 15.3572 12.8572 15.3572Z" fill="white"/>
</svg>
