<svg width="40" height="40" viewBox="0 0 40 40" fill="none" xmlns="http://www.w3.org/2000/svg">
<g clip-path="url(#clip0_138_85)">
<path fill-rule="evenodd" clip-rule="evenodd" d="M20 1.78291L21.2627 0.520217C20.5653 -0.177149 19.4347 -0.177149 18.7373 0.520217L20 1.78291ZM34.0197 31.4943C35.1563 29.312 35.7989 26.8311 35.7989 24.204C35.7989 21.6653 34.7617 18.9017 33.4037 16.3219C32.0249 13.7016 30.2069 11.0722 28.422 8.75173C26.6321 6.4249 24.8467 4.37204 23.5109 2.90264C22.8421 2.16694 22.2837 1.57507 21.891 1.16553C21.6946 0.960702 21.5395 0.801328 21.4325 0.692205L21.309 0.566765L21.2759 0.533408L21.2667 0.524262L21.2627 0.520217C21.2624 0.519925 21.2627 0.520217 20 1.78291C18.7373 0.520217 18.7375 0.520077 18.7373 0.520217L18.7324 0.525157L18.721 0.536582L18.6794 0.578571L18.5238 0.736862C18.3891 0.874548 18.1943 1.0755 17.9491 1.3328C17.4588 1.84723 16.7663 2.58788 15.951 3.49935C14.6603 4.9423 13.0521 6.82407 11.4474 8.92201L3.0484 0.523005C2.35104 -0.174359 1.22039 -0.174359 0.523023 0.523005C-0.174341 1.22037 -0.174341 2.35102 0.523023 3.04838L10.3596 12.885C10.3749 12.9008 10.3905 12.9165 10.4065 12.9319L30.4957 33.0211C30.5131 33.0394 30.5311 33.0574 30.5494 33.0748L36.9517 39.4768C37.6489 40.1743 38.7797 40.1743 39.4769 39.4768C40.1743 38.7797 40.1743 37.6488 39.4769 36.9517L34.0197 31.4943ZM8.51771 16.415C9.40474 16.846 9.77434 17.9146 9.34326 18.8016C8.3248 20.8972 7.77257 22.7416 7.77257 24.2042C7.77257 30.9571 13.247 36.4317 20 36.4317C22.0129 36.4317 23.9072 35.9466 25.5775 35.0888C26.4548 34.6383 27.5312 34.984 27.9818 35.8614C28.4324 36.7386 28.0865 37.8151 27.2092 38.2657C25.0458 39.3768 22.5935 40.0031 20 40.0031C11.2745 40.0031 4.20114 32.9297 4.20114 24.2042C4.20114 21.9509 5.01737 19.5321 6.13109 17.2405C6.56217 16.3535 7.63071 15.9839 8.51771 16.415Z" fill="white"/>
</g>
<defs>
<clipPath id="clip0_138_85">
<rect width="40" height="40" fill="white"/>
</clipPath>
</defs>
</svg>
