<svg width="40" height="40" viewBox="0 0 40 40" fill="none" xmlns="http://www.w3.org/2000/svg">
<g clip-path="url(#clip0_138_37)">
<path fill-rule="evenodd" clip-rule="evenodd" d="M30.9031 4.91568C31.3443 4.03356 32.4169 3.67602 33.2991 4.11708L39.0134 6.97422C39.6234 7.27931 40.0066 7.90531 40.0003 8.58745C39.9943 9.26956 39.6 9.88862 38.9846 10.1827C35.1991 11.9913 31.0809 13.0247 27.2301 13.2122C27.2012 13.2136 27.1722 13.2143 27.1433 13.2143C23.863 13.2143 21.3963 11.9805 19.2948 10.9294L19.2018 10.8829C17.0494 9.80668 15.2624 8.93796 12.8961 8.92865C9.21637 9.09711 5.93217 9.99822 2.55593 11.6113C1.66605 12.0364 0.600014 11.6597 0.174863 10.7698C-0.250288 9.87991 0.126448 8.81388 1.01633 8.38874C4.78589 6.58776 8.54926 5.54619 12.7785 5.35888C12.8049 5.35771 12.8312 5.35714 12.8575 5.35714C16.1378 5.35714 18.6046 6.59094 20.706 7.64199L20.799 7.68851C22.9502 8.76414 24.7365 9.63248 27.1009 9.64276C29.2797 9.53254 31.5811 9.10914 33.8483 8.38474L31.7017 7.31148C30.8197 6.87042 30.4623 5.79779 30.9031 4.91568ZM30.9031 16.3443C31.3443 15.4621 32.4169 15.1046 33.2991 15.5457L39.0134 18.4028C39.6234 18.7079 40.0066 19.3339 40.0003 20.016C39.9943 20.6981 39.6 21.3172 38.9846 21.6113C35.2149 23.4122 31.4517 24.4538 27.2223 24.6411C27.196 24.6423 27.1696 24.6429 27.1433 24.6429C23.863 24.6429 21.3963 23.4091 19.2948 22.358L19.2018 22.3115C17.0494 21.2353 15.2624 20.3665 12.8961 20.3572C9.21637 20.5257 5.93217 21.4268 2.55593 23.0398C1.66605 23.465 0.600014 23.0883 0.174863 22.1984C-0.250288 21.3085 0.126448 20.2425 1.01633 19.8173C4.78589 18.0163 8.54926 16.9748 12.7785 16.7875C12.8049 16.7863 12.8312 16.7857 12.8575 16.7857C16.1378 16.7857 18.6046 18.0195 20.706 19.0706L20.799 19.1171C22.9514 20.1933 24.7385 21.062 27.1048 21.0713C29.4854 20.9624 31.7003 20.5467 33.882 19.8301L31.7017 18.7401C30.8197 18.299 30.4623 17.2264 30.9031 16.3443ZM33.2991 26.9742C32.4169 26.5332 31.3443 26.8907 30.9031 27.7728C30.4623 28.6549 30.8197 29.7274 31.7017 30.1686L33.882 31.2586C31.7003 31.9754 29.4854 32.3909 27.1048 32.5C24.7385 32.4906 22.9514 31.622 20.799 30.5457L20.706 30.4991C18.6046 29.448 16.1378 28.2143 12.8575 28.2143C12.8312 28.2143 12.8049 28.2149 12.7785 28.216C8.54926 28.4033 4.78589 29.4449 1.01633 31.246C0.126448 31.6711 -0.250288 32.7371 0.174863 33.6269C0.600014 34.5169 1.66605 34.8934 2.55593 34.4683C5.93217 32.8554 9.21637 31.9543 12.8961 31.7857C15.2624 31.7951 17.0494 32.6637 19.2018 33.74L19.2948 33.7866C21.3963 34.8377 23.863 36.0714 27.1433 36.0714C27.1696 36.0714 27.196 36.0709 27.2223 36.0697C31.4517 35.8823 35.2149 34.8409 38.9846 33.0397C39.6 32.7457 39.9943 32.1269 40.0003 31.4446C40.0066 30.7626 39.6234 30.1366 39.0134 29.8314L33.2991 26.9742Z" fill="white"/>
</g>
<defs>
<clipPath id="clip0_138_37">
<rect width="40" height="40" fill="white"/>
</clipPath>
</defs>
</svg>
