<svg width="40" height="40" viewBox="0 0 40 40" fill="none" xmlns="http://www.w3.org/2000/svg">
<path fill-rule="evenodd" clip-rule="evenodd" d="M24.2858 8.57142C24.2858 4.62653 27.4838 1.42856 31.4287 1.42856C35.3735 1.42856 38.5715 4.62653 38.5715 8.57142C38.5715 12.5163 35.3735 15.7143 31.4287 15.7143C27.4838 15.7143 24.2858 12.5163 24.2858 8.57142ZM4.64296 27.1428C4.64296 22.6062 8.32062 18.9286 12.8572 18.9286C16.6564 18.9286 19.8572 21.5092 20.794 25.0162C20.9521 25.608 21.4024 26.0774 21.9871 26.2599C22.5717 26.4425 23.2092 26.3126 23.6758 25.9159C24.6111 25.1209 25.8189 24.6428 27.143 24.6428C30.1015 24.6428 32.5001 27.0413 32.5001 30C32.5001 32.9586 30.1015 35.3571 27.143 35.3571H12.8572C8.32062 35.3571 4.64296 31.6794 4.64296 27.1428ZM12.8572 15.3571C6.34819 15.3571 1.07153 20.6338 1.07153 27.1428C1.07153 33.652 6.34819 38.9286 12.8572 38.9286H27.143C32.0741 38.9286 36.0715 34.9311 36.0715 30C36.0715 25.0689 32.0741 21.0714 27.143 21.0714C25.8108 21.0714 24.5454 21.364 23.4089 21.8879C21.4775 18.017 17.4796 15.3571 12.8572 15.3571Z" fill="white"/>
</svg>
