<svg width="41" height="41" viewBox="0 0 41 41" fill="none" xmlns="http://www.w3.org/2000/svg">
<path fill-rule="evenodd" clip-rule="evenodd" d="M40.2119 19.9988C40.2225 20.985 39.4317 21.793 38.4455 21.8036L35.5885 21.8342C34.6023 21.8448 33.7943 21.0539 33.7837 20.0678C33.7732 19.0816 34.564 18.2736 35.5502 18.263L38.4072 18.2324C39.3933 18.2218 40.2014 19.0127 40.2119 19.9988ZM27.1114 18.3535C26.2854 15.2814 23.4646 13.0352 20.1365 13.0709C16.8084 13.1066 14.0364 15.4128 13.2765 18.5019L27.1114 18.3535ZM20.0982 9.49966C26.0152 9.43619 30.8633 14.1814 30.9268 20.0984C30.9373 21.0846 30.1465 21.8926 29.1603 21.9032L11.3042 22.0947C10.318 22.1053 9.51 21.3144 9.49942 20.3282C9.43596 14.4112 14.1812 9.56312 20.0982 9.49966ZM4.87599 22.1636C5.86222 22.1531 6.65302 21.3451 6.64245 20.3589C6.63187 19.3727 5.82391 18.5818 4.83768 18.5924L1.9807 18.6231C0.994475 18.6336 0.203668 19.4417 0.214245 20.4278C0.224823 21.414 1.03278 22.2049 2.01901 22.1943L4.87599 22.1636ZM20.4276 40.2122C19.4414 40.2228 18.6334 39.4319 18.6228 38.4457L18.5922 35.5887C18.5816 34.6025 19.3725 33.7946 20.3587 33.784C21.3448 33.7734 22.1528 34.5642 22.1634 35.5504L22.1941 38.4074C22.2046 39.3936 21.4138 40.2016 20.4276 40.2122ZM18.2628 4.87622C18.2734 5.86239 19.0814 6.65326 20.0675 6.64268C21.0537 6.6321 21.8446 5.82409 21.834 4.83792L21.8034 1.98094C21.7928 0.994771 20.9848 0.2039 19.9986 0.214478C19.0124 0.225055 18.2216 1.03308 18.2321 2.01924L18.2628 4.87622ZM34.2027 5.92032C34.9076 6.61014 34.9197 7.74073 34.2298 8.44555L32.2313 10.4874C31.5415 11.1922 30.4109 11.2043 29.7061 10.5145C29.0013 9.82464 28.9892 8.69405 29.679 7.98924L31.6775 5.94741C32.3674 5.24259 33.498 5.23047 34.2027 5.92032ZM10.7471 32.4376C11.4367 31.7327 11.4246 30.6022 10.72 29.9123C10.0151 29.2224 8.88463 29.2345 8.19472 29.9394L6.19622 31.9812C5.50631 32.6861 5.51843 33.8166 6.2233 34.5065C6.92788 35.1961 8.05867 35.184 8.74858 34.4794L10.7471 32.4376ZM34.5061 34.2031C33.8163 34.9077 32.6857 34.9198 31.9809 34.2302L29.939 32.2314C29.2342 31.5418 29.2221 30.411 29.9119 29.7064C30.6018 29.0016 31.7324 28.9894 32.4372 29.6793L34.479 31.6778C35.1838 32.3675 35.196 33.4983 34.5061 34.2031ZM7.98887 10.7474C8.69374 11.4372 9.82424 11.4251 10.5141 10.7203C11.2038 10.0155 11.1916 8.88492 10.4871 8.19506L8.44523 6.19653C7.74036 5.50668 6.60957 5.51881 5.91995 6.22362C5.23004 6.92843 5.24216 8.05902 5.94703 8.74885L7.98887 10.7474Z" fill="white"/>
</svg>
