<svg width="40" height="40" viewBox="0 0 40 40" fill="none" xmlns="http://www.w3.org/2000/svg">
<g clip-path="url(#clip0_138_83)">
<path fill-rule="evenodd" clip-rule="evenodd" d="M0.523127 0.523023C1.22049 -0.174341 2.35114 -0.174341 3.0485 0.523023L10.1231 7.59763C12.9605 5.67334 16.3226 4.20131 20.0003 4.20131C24.4984 4.20131 28.5243 6.40323 31.6955 8.94149C34.8881 11.4968 37.4072 14.5467 38.9267 16.5867L38.9415 16.6066C39.6478 17.5829 40.0038 18.7938 40.0038 20.0006C40.0038 21.2074 39.6475 22.4182 38.9412 23.3945L38.927 23.4146C37.575 25.23 35.4307 27.8451 32.7252 30.1997L39.477 36.9517C40.1744 37.6489 40.1744 38.7797 39.477 39.4769C38.7798 40.1743 37.649 40.1743 36.9518 39.4769L0.523127 3.0484C-0.174237 2.35104 -0.174237 1.22039 0.523127 0.523023ZM16.3715 13.846L12.702 10.1765C15.0035 8.71809 17.4763 7.77274 20.0003 7.77274C23.3368 7.77274 26.5837 9.42454 29.4638 11.7298C32.3167 14.0132 34.6238 16.7897 36.0535 18.7082C36.2755 19.0192 36.4324 19.4777 36.4324 20.0006C36.4324 20.5235 36.2755 20.982 36.0535 21.293C34.7478 23.0452 32.7101 25.5132 30.193 27.6676L26.1538 23.6283C26.7821 22.5649 27.1426 21.3246 27.1426 20C27.1426 16.0551 23.9446 12.8571 19.9998 12.8571C18.6752 12.8571 17.4348 13.2177 16.3715 13.846ZM6.26373 15.852C6.9165 15.1127 6.84633 13.9842 6.10705 13.3315C5.36776 12.6787 4.23928 12.7489 3.58653 13.4881C2.58301 14.6247 1.73669 15.6977 1.07434 16.587L1.05966 16.607C0.353376 17.5834 -0.00268555 18.7941 -0.00268555 20.0009C-0.00268555 21.2078 0.353376 22.4185 1.05966 23.3949L1.07434 23.4149C2.5937 25.4549 5.1129 28.5048 8.30548 31.06C11.4767 33.5983 15.5026 35.8003 20.0007 35.8003C21.4621 35.8003 22.874 35.5671 24.2192 35.1674C25.1646 34.8869 25.7034 33.8929 25.4226 32.9474C25.1419 32.002 24.1479 31.4631 23.2025 31.744C22.1482 32.0569 21.0792 32.2289 20.0007 32.2289C16.6643 32.2289 13.4173 30.5769 10.5372 28.2718C7.68422 25.9883 5.37716 23.2117 3.94739 21.2933C3.72542 20.9823 3.56873 20.5238 3.56873 20.0009C3.56873 19.4781 3.72542 19.0196 3.94736 18.7086C4.56096 17.8853 5.34193 16.896 6.26373 15.852Z" fill="white"/>
</g>
<defs>
<clipPath id="clip0_138_83">
<rect width="40" height="40" fill="white"/>
</clipPath>
</defs>
</svg>
