<svg width="40" height="40" viewBox="0 0 40 40" fill="none" xmlns="http://www.w3.org/2000/svg">
<g clip-path="url(#clip0_138_32)">
<path fill-rule="evenodd" clip-rule="evenodd" d="M19.2857 2.50001C19.2857 1.51379 20.0852 0.714294 21.0714 0.714294H21.7857C25.5334 0.714294 28.5714 3.75235 28.5714 7.50001C28.5714 11.2477 25.5334 14.2857 21.7857 14.2857H1.78571C0.799491 14.2857 0 13.4862 0 12.5C0 11.5138 0.799491 10.7143 1.78571 10.7143H21.7857C23.5609 10.7143 25 9.27521 25 7.50001C25 5.72481 23.5609 4.28572 21.7857 4.28572H21.0714C20.0852 4.28572 19.2857 3.48624 19.2857 2.50001ZM2.85714 27.5C2.85714 26.5138 3.65663 25.7143 4.64286 25.7143H20.3571C24.1048 25.7143 27.1429 28.7523 27.1429 32.5C27.1429 36.2477 24.1048 39.2857 20.3571 39.2857H19.6429C18.6566 39.2857 17.8571 38.4863 17.8571 37.5C17.8571 36.5137 18.6566 35.7143 19.6429 35.7143H20.3571C22.1323 35.7143 23.5714 34.2752 23.5714 32.5C23.5714 30.7249 22.1323 29.2857 20.3571 29.2857H4.64286C3.65663 29.2857 2.85714 28.4862 2.85714 27.5ZM6.07143 18.2143C5.0852 18.2143 4.28571 19.0138 4.28571 20C4.28571 20.9862 5.0852 21.7857 6.07143 21.7857H33.2143C34.9894 21.7857 36.4286 23.2248 36.4286 25C36.4286 26.7752 34.9894 28.2143 33.2143 28.2143H32.5C31.5137 28.2143 30.7143 29.0137 30.7143 30C30.7143 30.9863 31.5137 31.7857 32.5 31.7857H33.2143C36.962 31.7857 40 28.7477 40 25C40 21.2524 36.962 18.2143 33.2143 18.2143H6.07143Z" fill="#FEFEFE"/>
</g>
<defs>
<clipPath id="clip0_138_32">
<rect width="40" height="40" fill="white"/>
</clipPath>
</defs>
</svg>
