<svg width="40" height="40" viewBox="0 0 40 40" fill="none" xmlns="http://www.w3.org/2000/svg">
<g clip-path="url(#clip0_138_86)">
<path fill-rule="evenodd" clip-rule="evenodd" d="M32.6131 2.79993C33.0868 2.79993 33.5411 2.98807 33.876 3.32296L39.4811 8.9283C40.1785 9.62567 40.1785 10.7563 39.4811 11.4537C38.784 12.151 37.6531 12.151 36.956 11.4537L32.6131 7.11101L28.8323 10.8919L32.474 14.5334C33.1711 15.2308 33.1711 16.3614 32.474 17.0588C31.7765 17.7562 30.6457 17.7562 29.9485 17.0588L26.3069 13.4173L18.5535 21.1707C19.7095 22.8241 20.3877 24.8362 20.3877 27.0068C20.3877 32.6383 15.8225 37.2034 10.1911 37.2034C4.55959 37.2034 -0.00561523 32.6383 -0.00561523 27.0068C-0.00561523 21.3753 4.55959 16.8101 10.1911 16.8101C12.3621 16.8101 14.3747 17.4886 16.0283 18.6452L25.0101 9.66336C25.0211 9.6517 25.0324 9.64018 25.0438 9.62876C25.0552 9.61733 25.0667 9.6061 25.0784 9.59507L31.3505 3.32296C31.6854 2.98807 32.1397 2.79993 32.6131 2.79993ZM10.1911 21.8101C7.32102 21.8101 4.99439 24.1367 4.99439 27.0068C4.99439 29.8768 7.32102 32.2034 10.1911 32.2034C13.0611 32.2034 15.3877 29.8768 15.3877 27.0068C15.3877 24.1367 13.0611 21.8101 10.1911 21.8101Z" fill="white"/>
</g>
<defs>
<clipPath id="clip0_138_86">
<rect width="40" height="40" fill="white"/>
</clipPath>
</defs>
</svg>
