<svg width="40" height="40" viewBox="0 0 40 40" fill="none" xmlns="http://www.w3.org/2000/svg">
<path fill-rule="evenodd" clip-rule="evenodd" d="M19.0291 1.78571C19.0291 0.799491 19.8985 0 20.9708 0H30.2912C31.0266 0 31.6992 0.382146 32.0279 0.987117C32.3569 1.59209 32.2857 2.31604 31.8446 2.85714L24.8543 11.4286H30.2912C31.3637 11.4286 32.2329 12.2281 32.2329 13.2143C32.2329 14.2005 31.3637 15 30.2912 15H20.9708C20.2354 15 19.563 14.6179 19.2341 14.0129C18.9052 13.4079 18.9762 12.684 19.4174 12.1429L26.4077 3.57143H20.9708C19.8985 3.57143 19.0291 2.77194 19.0291 1.78571ZM1.49806e-05 14.2857C1.49806e-05 13.2995 0.869372 12.5 1.94174 12.5H12.8155C13.5571 12.5 14.234 12.8885 14.5598 13.5012C14.8856 14.1138 14.8035 14.8437 14.3482 15.382L5.91191 25.3571H12.8155C13.8879 25.3571 14.7572 26.1566 14.7572 27.1429C14.7572 28.1291 13.8879 28.9286 12.8155 28.9286H1.94174C1.20015 28.9286 0.523276 28.5401 0.197461 27.9274C-0.12837 27.3147 -0.04627 26.5849 0.409039 26.0465L8.84537 16.0714H1.94174C0.869372 16.0714 1.49806e-05 15.2719 1.49806e-05 14.2857ZM24.8543 20.7143C23.353 20.7143 22.1359 21.8336 22.1359 23.2143C22.1359 24.595 23.353 25.7143 24.8543 25.7143H31.6256L22.7316 35.9383C22.0788 36.6886 21.9515 37.7169 22.4042 38.5829C22.8569 39.4491 23.8093 40 24.8543 40H37.2815C38.783 40 39.9999 38.8806 39.9999 37.5C39.9999 36.1194 38.783 35 37.2815 35H30.5105L39.4043 24.776C40.0571 24.0256 40.1844 22.9975 39.7315 22.1313C39.2788 21.2651 38.3266 20.7143 37.2815 20.7143H24.8543Z" fill="white"/>
</svg>
